<?xml version="1.0" standalone="no"?>
<!DOCTYPE svg PUBLIC "-//W3C//DTD SVG 20010904//EN"
 "http://www.w3.org/TR/2001/REC-SVG-20010904/DTD/svg10.dtd">
<svg version="1.0" xmlns="http://www.w3.org/2000/svg"
 width="488.000000pt" height="364.000000pt" viewBox="0 0 488.000000 364.000000"
 preserveAspectRatio="xMidYMid meet">
<metadata>
Created by potrace 1.16, written by Peter Selinger 2001-2019
</metadata>
<g transform="translate(0.000000,364.000000) scale(0.100000,-0.100000)"
fill="#000000" stroke="none">
<path d="M2605 2887 c-162 -87 -286 -212 -365 -366 -45 -89 -49 -112 -27 -148
10 -18 22 -33 26 -33 4 0 23 24 41 53 43 67 179 201 254 251 56 37 166 98 194
107 11 4 7 21 -14 74 -39 100 -38 100 -109 62z"/>
<path d="M2581 2651 l-41 -28 52 -33 c114 -74 239 -223 318 -380 18 -36 33
-66 35 -67 1 -2 36 11 79 28 86 36 86 35 39 119 -90 161 -229 290 -394 367
l-46 21 -42 -27z"/>
<path d="M2016 2509 c-38 -16 -71 -30 -72 -32 -6 -6 47 -109 86 -167 83 -122
227 -238 368 -295 74 -30 69 -30 110 -5 l33 20 -73 49 c-132 89 -253 232 -337
399 -17 34 -35 62 -39 61 -4 0 -38 -14 -76 -30z"/>
<path d="M2482 2395 c-38 -32 -46 -65 -28 -109 39 -93 172 -78 192 21 7 35
-16 87 -45 103 -35 18 -87 12 -119 -15z"/>
<path d="M2830 2271 c0 -18 -152 -170 -218 -219 -37 -27 -103 -68 -147 -92
-44 -23 -82 -43 -84 -45 -4 -5 49 -135 60 -149 4 -4 45 11 90 35 113 59 266
210 323 317 l38 73 -23 45 c-22 41 -39 56 -39 35z"/>
<path d="M1410 1325 l0 -246 48 3 47 3 0 240 0 240 -47 3 -48 3 0 -246z"/>
<path d="M2629 1559 c-198 -30 -279 -268 -138 -408 100 -100 279 -97 369 5 16
19 30 38 30 43 0 4 -19 15 -42 24 -41 17 -42 17 -67 -7 -38 -35 -65 -46 -113
-46 -56 0 -102 29 -128 79 -25 50 -25 91 0 140 25 50 75 81 129 81 47 0 74
-11 112 -46 25 -24 26 -24 67 -7 23 9 42 19 42 23 0 17 -45 62 -84 85 -53 31
-116 43 -177 34z"/>
<path d="M3970 1490 l0 -80 -27 17 c-38 25 -130 23 -175 -5 -18 -12 -44 -40
-57 -62 -20 -35 -23 -52 -19 -110 4 -77 21 -109 78 -147 39 -27 125 -31 170
-8 25 13 29 13 34 0 4 -10 20 -15 51 -15 l45 0 0 245 0 245 -50 0 -50 0 0 -80z
m-28 -150 c49 -38 46 -129 -6 -161 -43 -26 -89 -24 -123 5 -24 21 -28 32 -28
74 0 40 5 56 24 76 31 33 96 36 133 6z"/>
<path d="M980 1320 l0 -240 50 0 49 0 3 98 3 97 113 3 112 3 0 39 0 40 -115 0
-115 0 0 55 0 55 131 0 130 0 -3 43 -3 42 -177 3 -178 2 0 -240z"/>
<path d="M1740 1440 c-65 -12 -112 -45 -140 -99 -18 -35 -16 -130 3 -168 57
-110 229 -132 315 -40 l23 24 -36 22 -37 21 -25 -20 c-35 -27 -102 -27 -137 1
-14 11 -26 25 -26 30 0 5 61 9 140 9 l140 0 0 43 c0 114 -103 197 -220 177z"/>
<path d="M3070 1440 c-43 -10 -105 -77 -114 -121 -18 -89 11 -175 73 -216 40
-27 126 -31 171 -8 25 13 29 13 34 0 4 -10 20 -15 51 -15 l45 0 0 180 0 180
-45 0 c-31 0 -47 -5 -51 -15 -5 -12 -9 -12 -27 0 -29 19 -94 26 -137 15z m135
-104 c88 -88 -6 -217 -116 -161 -56 30 -66 109 -20 156 39 38 100 41 136 5z"/>
<path d="M3587 1436 c-20 -8 -44 -19 -52 -26 -13 -10 -15 -9 -15 9 0 18 -6 21
-45 21 l-45 0 0 -180 0 -180 45 0 45 0 0 89 c0 48 5 102 11 120 12 33 52 61
89 61 17 0 20 6 20 50 0 55 1 55 -53 36z"/>
<path d="M2000 1431 c0 -4 27 -44 60 -86 34 -43 59 -84 56 -92 -3 -7 -30 -46
-61 -86 -30 -41 -55 -77 -55 -80 0 -4 24 -7 54 -7 53 0 55 1 90 50 20 28 39
50 43 50 5 0 23 -23 41 -50 l32 -50 61 0 c48 0 59 3 52 13 -58 72 -123 162
-123 167 0 4 21 33 46 66 25 32 55 71 66 87 l19 27 -59 0 -59 0 -38 -55 c-20
-30 -38 -55 -40 -55 -1 0 -19 25 -40 55 l-37 55 -54 0 c-30 0 -54 -4 -54 -9z"/>
</g>
</svg>
